<?xml version="1.0" encoding="UTF-8"?>
<svg version="1.1" xmlns="http://www.w3.org/2000/svg" width="2048" height="2048">
<path d="M0 0 C675.84 0 1351.68 0 2048 0 C2048 675.84 2048 1351.68 2048 2048 C1372.16 2048 696.32 2048 0 2048 C0 1372.16 0 696.32 0 0 Z " fill="#FEFEFE" transform="translate(0,0)"/>
<path d="M0 0 C9.81624107 8.89901775 17.23057512 22.4135333 18.0624702 35.75699043 C18.13879833 39.45663473 18.15158109 43.15361759 18.14242554 46.85375977 C18.14616569 48.28881888 18.15076866 49.72387595 18.15615618 51.15892982 C18.16835713 55.089138 18.16812914 59.01926086 18.16576743 62.94948363 C18.16535851 67.19373741 18.17640575 71.43796411 18.18588257 75.6822052 C18.20247896 83.99372606 18.20799155 92.30521855 18.20910732 100.61675459 C18.2100587 107.37701448 18.21417348 114.13726504 18.22050858 120.89752197 C18.23811937 140.08200833 18.24734801 159.26647234 18.24584763 178.45096684 C18.24572776 180.00156882 18.24572776 180.00156882 18.24560547 181.58349609 C18.24552371 182.61849967 18.24544195 183.65350325 18.24535771 184.71987057 C18.24454546 201.47952796 18.26366818 218.23909535 18.2918822 234.99872673 C18.32065179 252.22497269 18.33442017 269.45117483 18.33269465 286.67744541 C18.33203202 296.34149031 18.33746795 306.00544092 18.35905075 315.66946411 C18.37731651 323.90079812 18.38156598 332.13199511 18.3680319 340.36334068 C18.3615286 344.55777628 18.36128863 348.75194945 18.3787384 352.94635963 C18.39459276 356.79715044 18.39148138 360.64747346 18.37417014 364.4982537 C18.36970159 366.528043 18.38466011 368.55784754 18.40064943 370.58757877 C18.30586488 383.39331732 15.83880257 395.97481009 9.1875 407.0625 C8.75179687 407.81394287 8.31609375 408.56538574 7.8671875 409.33959961 C-5.29848665 431.5137432 -25.26486783 445.2136717 -49.93359375 451.98828125 C-57.42464374 453.77623076 -64.57915363 453.96657583 -72.25 454 C-73.99023438 454.0309375 -73.99023438 454.0309375 -75.765625 454.0625 C-88.02768555 454.11736381 -98.23820602 451.25305065 -109.125 445.75 C-110.72214844 444.95916016 -110.72214844 444.95916016 -112.3515625 444.15234375 C-119.65412202 440.39845191 -126.00491682 436.22219164 -132.125 430.75 C-132.95773437 430.01136719 -133.79046875 429.27273438 -134.6484375 428.51171875 C-143.32217059 420.35840964 -149.66057286 410.76411963 -154.125 399.75 C-155.094375 399.73582031 -156.06375 399.72164062 -157.0625 399.70703125 C-172.09951127 399.2639308 -184.9000845 395.82350995 -197.125 386.75 C-198.73375 385.6053125 -198.73375 385.6053125 -200.375 384.4375 C-202.98929935 381.88261655 -204.30222679 379.74266408 -206.125 376.625 C-208.3343707 373.32071993 -209.53185838 371.96914099 -213.296875 370.578125 C-215.71456078 370.10303391 -218.14291276 369.67973073 -220.578125 369.3046875 C-243.03831272 365.79219118 -264.24959356 349.11071734 -277.9609375 331.765625 C-295.66215534 307.09894599 -302.79232831 276.23936942 -297.87109375 246.3046875 C-291.96735103 218.17690807 -276.00675836 194.02806244 -253.125 176.75 C-252.465 176.75 -251.805 176.75 -251.125 176.75 C-251.36283203 175.0175 -251.36283203 175.0175 -251.60546875 173.25 C-254.14663578 152.70401008 -250.23000146 133.32324224 -237.4375 116.6875 C-236.34229955 115.367509 -235.23801566 114.05500438 -234.125 112.75 C-233.52300781 111.94691406 -232.92101562 111.14382813 -232.30078125 110.31640625 C-229.81141273 107.3801134 -227.04556672 105.07043179 -224 102.75 C-223.48179687 102.3375 -222.96359375 101.925 -222.4296875 101.5 C-217.49482485 97.7039518 -212.95358199 95.66429099 -207.125 92.75 C-274.115 92.42 -341.105 92.09 -410.125 91.75 C-410.125 112.54 -410.125 133.33 -410.125 154.75 C-413.125 160.75 -413.125 160.75 -416.125 162.75 C-421.01016144 163.46207438 -424.9350735 163.47852643 -429.1875 160.875 C-444.72592298 143.83285866 -432.125 114.81246236 -432.125 91.75 C-476.345 91.75 -520.565 91.75 -566.125 91.75 C-566.125 129.7 -566.125 167.65 -566.125 206.75 C-564.145 207.41 -562.165 208.07 -560.125 208.75 C-539.32653456 220.89801255 -525.58051361 239.78423264 -519.25 262.9375 C-516.71942754 275.18606965 -517.26878613 288.61563917 -520.125 300.75 C-520.29644531 301.53761719 -520.46789062 302.32523438 -520.64453125 303.13671875 C-523.81877175 315.52649617 -530.51457533 327.38657241 -539.125 336.75 C-539.82367187 337.52859375 -540.52234375 338.3071875 -541.2421875 339.109375 C-548.20370661 346.49205363 -556.09673905 351.23586952 -565.125 355.75 C-565.455 395.02 -565.785 434.29 -566.125 474.75 C-521.905 474.75 -477.685 474.75 -432.125 474.75 C-432.125 453.96 -432.125 433.17 -432.125 411.75 C-429.125 406.75 -429.125 406.75 -426.125 404.75 C-422.34811096 404.06656294 -418.65313111 403.89892905 -415.23828125 405.80078125 C-413.08258708 407.57022513 -411.3791672 409.2416656 -410.125 411.75 C-410.125 432.54 -410.125 453.33 -410.125 474.75 C-187.375 474.255 -187.375 474.255 39.875 473.75 C37.4 468.305 37.4 468.305 34.875 462.75 C34.05753622 460.35531197 33.29462525 457.94015979 32.625 455.5 C32.31046875 454.38109375 31.9959375 453.2621875 31.671875 452.109375 C30.3011155 446.330683 29.7497857 440.75098971 29.74077892 434.81858635 C29.73842669 434.15425008 29.73607446 433.48991382 29.73365095 432.80544615 C29.72701355 430.58755567 29.72741757 428.36972448 29.72782898 426.15182495 C29.72452709 424.54225073 29.72080084 422.93267733 29.7166875 421.32310498 C29.70669669 416.90600178 29.70295543 412.48891217 29.70029819 408.07179928 C29.69638657 403.3054338 29.68680898 398.53907898 29.67808533 393.77272034 C29.65834728 382.26639442 29.64825903 370.76006765 29.63935754 359.25372905 C29.63497112 353.83211726 29.62960531 348.41050644 29.62436867 342.98889542 C29.60736064 324.96207571 29.59286631 306.9352566 29.58561993 288.9084301 C29.58371012 284.23322422 29.58178977 279.55801836 29.57983398 274.8828125 C29.57935024 273.72085067 29.5788665 272.55888884 29.5783681 271.36171605 C29.57006709 252.53715469 29.54472704 233.71265687 29.51225331 214.88812326 C29.47916978 195.55219541 29.46117008 176.21629985 29.45797569 156.88034356 C29.45581202 146.02756884 29.44708405 135.17488684 29.42151451 124.32213974 C29.39979005 115.08024135 29.3917658 105.83845819 29.40148129 96.59653716 C29.40602062 91.8840178 29.40416101 87.17173613 29.38471985 82.4592495 C29.36704956 78.13859255 29.36811706 73.81834603 29.38361714 69.49768449 C29.38598733 67.94114013 29.38170045 66.38456704 29.36978849 64.82806645 C29.2346225 45.98758437 34.89570001 29.90452241 48.16796875 16.43359375 C49.06128906 15.54800781 49.95460938 14.66242187 50.875 13.75 C51.82826172 12.74646484 51.82826172 12.74646484 52.80078125 11.72265625 C64.49585292 0.2868988 82.77475774 -5.53030945 98.875 -5.6875 C119.16213724 -5.29213557 137.51701419 1.42712479 152.875 14.75 C153.59816406 15.36230469 154.32132813 15.97460938 155.06640625 16.60546875 C165.79505983 26.45231519 174.15719724 41.30972054 175.875 55.75 C176.87744751 55.71072388 176.87744751 55.71072388 177.90014648 55.6706543 C202.92812253 54.82257584 221.24043613 59.03880758 240.375 75.9609375 C256.65937468 91.30200999 264.74230963 112.72112522 265.875 134.75 C266.72320313 135.00652344 267.57140625 135.26304687 268.4453125 135.52734375 C288.18702562 141.97051825 302.62437971 153.90071579 312.30859375 172.50390625 C316.15788484 180.53373307 318.87540292 188.42892938 319 197.375 C319.42241307 203.24736991 322.01773712 205.45860873 326.2734375 209.26171875 C342.76957865 225.03955946 353.48773969 250.37373283 354.17578125 272.94921875 C354.36168412 293.24516409 352.64813517 314.98498329 341.0625 332.48828125 C339.40701941 335.6413183 340.02870322 337.33112944 340.875 340.75 C346.45188368 367.91202414 344.25703384 393.74289466 329.375 417.875 C328.23874588 419.52140903 327.07231113 421.14744511 325.875 422.75 C324.91787109 424.03583984 324.91787109 424.03583984 323.94140625 425.34765625 C321.98341608 427.87815816 319.96242796 430.3254971 317.875 432.75 C317.29492188 433.42675781 316.71484375 434.10351562 316.1171875 434.80078125 C302.70646255 449.2855253 279.97042849 460.79803182 260.26635742 461.89526367 C224.88443782 462.1836274 224.88443782 462.1836274 212.875 455.75 C212.75382812 456.46027344 212.63265625 457.17054688 212.5078125 457.90234375 C207.7534684 479.29689222 192.34041199 496.54720268 174.625 508.375 C167.97292951 512.44750338 161.08357935 515.80480196 153.875 518.75 C152.81796875 519.18828125 151.7609375 519.6265625 150.671875 520.078125 C129.2336135 527.29194759 102.19641896 524.18588745 82.17944336 514.52905273 C73.46557986 510.12614828 64.55651936 505.005862 57.875 497.75 C57.875 497.09 57.875 496.43 57.875 495.75 C57.32104824 495.75062392 56.76709649 495.75124784 56.19635831 495.75189067 C-4.09380001 495.81965447 -64.38396254 495.88247912 -124.67414856 495.91937256 C-125.57428056 495.91992479 -126.47441257 495.92047702 -127.4018213 495.92104598 C-146.96259508 495.93301671 -166.52336927 495.94409756 -186.08414407 495.95426132 C-195.6762947 495.95925081 -205.26844523 495.964437 -214.8605957 495.96972656 C-215.81514639 495.9702496 -216.76969707 495.97077263 -217.75317354 495.97131152 C-248.71089647 495.98836673 -279.66859026 496.01841928 -310.62629553 496.05518888 C-342.43079281 496.09289578 -374.23527395 496.11753632 -406.0397932 496.12565996 C-410.52863265 496.12681263 -415.01747204 496.12811518 -419.50631142 496.12950897 C-420.38980746 496.12977866 -421.2733035 496.13004836 -422.18357215 496.13032622 C-436.42393229 496.13505903 -450.66424264 496.15362723 -464.90458245 496.17732814 C-479.20972849 496.20084313 -493.514825 496.20988046 -507.8199897 496.20400551 C-516.32622411 496.20095574 -524.83227771 496.2091403 -533.33847958 496.23319017 C-539.01486788 496.24814734 -544.69113726 496.24868472 -550.36753364 496.23732725 C-553.60565147 496.2312662 -556.84335543 496.23382459 -560.08145096 496.24953273 C-563.56469355 496.26545542 -567.04703396 496.2570132 -570.53026104 496.24219131 C-572.04832354 496.2579534 -572.04832354 496.2579534 -573.59705397 496.2740339 C-577.97016356 496.2316363 -580.42570592 496.18421191 -584.20621085 493.8367871 C-587.82379548 489.90246792 -588.37561981 487.15845607 -588.39915466 481.84255981 C-588.40912979 480.63409393 -588.41910492 479.42562805 -588.42938232 478.18054199 C-588.43027808 476.84448255 -588.43094167 475.50842294 -588.43139648 474.17236328 C-588.43901948 472.76280275 -588.44744723 471.35324637 -588.45661926 469.94369507 C-588.47855653 466.11719678 -588.48736202 462.2907784 -588.49244571 458.46422434 C-588.49608999 456.07277766 -588.50233041 453.68135189 -588.5094471 451.28991318 C-588.53393827 442.94473095 -588.54699291 434.59961086 -588.55053711 426.25439453 C-588.55417283 418.47896508 -588.58407138 410.70393024 -588.62594169 402.92862141 C-588.66064419 396.24993225 -588.67608553 389.57137388 -588.67678314 382.89259517 C-588.67757594 378.90500906 -588.68631523 374.91782504 -588.71478081 370.93033218 C-588.74096147 367.17908634 -588.74316745 363.42857595 -588.72712517 359.67728043 C-588.72444692 357.64831169 -588.74649397 355.61935727 -588.76931763 353.59051514 C-588.68937121 343.64920437 -588.68937121 343.64920437 -585.73988342 339.95675659 C-583.10993662 337.73728769 -581.4199224 336.79638983 -578.125 335.9375 C-564.20160456 331.37152821 -554.52689024 321.54009458 -547.8125 308.75 C-543.33239397 299.71276607 -541.62914753 291.34996864 -541.75 281.3125 C-541.73839844 280.35279297 -541.72679687 279.39308594 -541.71484375 278.40429688 C-541.77939762 262.42721401 -548.10600733 248.63442567 -559.265625 237.3828125 C-565.75249723 231.40992741 -572.51139811 228.54029075 -580.765625 225.75390625 C-584.68425598 224.08654174 -586.29031736 221.41936528 -588.125 217.75 C-588.2291838 215.90120925 -588.26888389 214.04865729 -588.27890015 212.19696045 C-588.29180084 210.42624931 -588.29180084 210.42624931 -588.30496216 208.61976624 C-588.30922211 207.31792892 -588.31348206 206.01609161 -588.31787109 204.67480469 C-588.32577152 203.29509779 -588.33404043 201.91539296 -588.34265137 200.53569031 C-588.36888062 195.99777197 -588.38418089 191.45984437 -588.3984375 186.921875 C-588.403797 185.35998783 -588.40917451 183.79810073 -588.41456985 182.23621368 C-588.4362008 175.73890355 -588.45493724 169.24159592 -588.46619225 162.74425888 C-588.48242928 153.43192802 -588.51559816 144.12001456 -588.57259309 134.80784106 C-588.61129764 128.26083963 -588.63082558 121.71394981 -588.63611281 115.16683698 C-588.63976591 111.25632665 -588.65178171 107.34626142 -588.68421555 103.43587494 C-588.71430542 99.75526512 -588.72060533 96.07536946 -588.70883179 92.39466286 C-588.70850608 90.40382323 -588.73296632 88.41302763 -588.75820923 86.42234802 C-588.69009413 76.66378771 -588.69009413 76.66378771 -585.71353149 72.96295166 C-581.78336588 69.60302866 -579.83485457 69.62746271 -574.71397877 69.63926792 C-574.04517228 69.63942167 -573.37636578 69.63957542 -572.68729243 69.63973382 C-570.42412968 69.64145058 -568.1610492 69.65033521 -565.89790344 69.65907288 C-564.26774589 69.66166461 -562.63758755 69.66379119 -561.00742882 69.66549009 C-557.45165169 69.67012759 -553.89589945 69.67789876 -550.34013367 69.68800163 C-544.55555218 69.70434993 -538.77097188 69.71378106 -532.9863739 69.7220459 C-526.75936117 69.7312247 -520.53235071 69.74082525 -514.30534232 69.75262368 C-498.8616894 69.78160916 -483.41808997 69.79317467 -467.97441101 69.79405212 C-466.85871936 69.79414583 -465.74302772 69.79423954 -464.59352724 69.79433609 C-455.40303861 69.79505811 -446.21255001 69.79506128 -437.02206136 69.794836 C-428.73777056 69.79467475 -420.45348014 69.79518698 -412.16918945 69.79663086 C-410.98787318 69.79682885 -409.80655691 69.79702684 -408.58944317 69.79723083 C-389.44683167 69.80142944 -370.30440377 69.83799316 -351.16185699 69.88558704 C-331.52095049 69.93359328 -311.88027994 69.94366981 -292.23932904 69.91924757 C-280.11788563 69.90544142 -267.99724403 69.92183912 -255.8759137 69.97671574 C-247.56952493 70.011559 -239.26364968 70.0098944 -230.95724592 69.97933079 C-226.16203213 69.9627944 -221.36826309 69.9626357 -216.57318497 70.00597191 C-212.1834363 70.04529878 -207.796255 70.03862583 -203.40656652 69.99526947 C-201.81834291 69.98772758 -200.22993033 69.99712221 -198.64193539 70.02510787 C-190.02429483 70.37650164 -190.02429483 70.37650164 -182.67573774 66.53631294 C-180.89527199 64.01180283 -179.49580219 61.51227052 -178.125 58.75 C-168.48445338 47.26445221 -153.32569767 37.35866279 -138.125 35.75 C-133.45262008 35.60585211 -128.79760786 35.63035997 -124.125 35.75 C-124.021875 34.89792969 -123.91875 34.04585937 -123.8125 33.16796875 C-120.90215046 18.69890142 -109.68968771 5.33990503 -98.125 -3.25 C-66.90238852 -23.53523606 -29.51880595 -24.09006003 0 0 Z " fill="#212733" transform="translate(1141.125,771.25)"/>
<path d="M0 0 C1.05058594 -0.00773438 2.10117188 -0.01546875 3.18359375 -0.0234375 C17.09556036 0.01138595 28.648753 4.02795159 39.125 13.25 C39.8778125 13.87390625 40.630625 14.4978125 41.40625 15.140625 C52.00323683 24.64888031 57.28641785 38.07703229 58.5625 52 C58.9418705 55.74791893 59.68304933 58.26539363 62.125 61.25 C65.36496906 63.59618449 68.20490815 63.62693191 72.125 63.25 C73.89037109 62.51330078 73.89037109 62.51330078 75.69140625 61.76171875 C80.56674851 59.88783233 85.12998375 59.71313058 90.3125 59.75 C91.69743652 59.75749268 91.69743652 59.75749268 93.11035156 59.76513672 C107.38667691 60.12716316 119.28142793 66.62009132 129.12890625 76.82421875 C139.125 88.9721135 139.125 88.9721135 139.125 94.25 C138.26519531 94.34796875 137.40539063 94.4459375 136.51953125 94.546875 C120.18432742 96.61326938 106.8199068 101.23871824 94.125 111.8125 C93.57263672 112.27148682 93.02027344 112.73047363 92.45117188 113.20336914 C88.13048327 116.93980106 85.32866234 119.96898182 84.8125 125.75 C85.11413818 129.12834762 85.38402424 131.34837373 87.125 134.25 C90.74570863 136.36208003 93.99071614 136.75623884 98.125 136.25 C101.45054314 134.4542067 103.67669976 132.834206 105.98046875 129.83203125 C111.19899679 123.54888547 119.99934949 118.49832184 128.125 117.25 C133.79171101 116.94171794 139.45597937 117.07426687 145.125 117.25 C146.55398031 134.9376007 140.75712803 152.41177112 130.25 166.5625 C127.95412352 169.73202859 127.14919783 171.10239321 126.5 175.0625 C127.1666083 178.46220231 128.01408218 180.51362504 130.125 183.25 C133.77783747 185.68522498 136.87468452 185.80474367 141.125 185.25 C148.0685653 182.99839727 151.67064108 173.07902693 154.8359375 166.921875 C159.06248226 158.03969464 162.67242473 149.01533278 164.125 139.25 C176.62122244 142.77457556 186.01051622 150.29257189 192.5859375 161.38671875 C197.17625287 169.92656942 198.61632957 177.35577309 198.71044922 186.96899414 C198.81806826 192.5210482 199.71741498 195.92412035 203.8515625 199.91796875 C204.47804688 200.41941406 205.10453125 200.92085937 205.75 201.4375 C218.76753181 212.54770114 227.07313096 225.61601129 231.125 242.25 C231.46144531 243.47976563 231.46144531 243.47976563 231.8046875 244.734375 C236.74669618 265.99178219 233.24748753 290.52474419 222.125 309.25 C214.11740808 321.07002453 203.01362056 327.98385191 189.125 331.25 C174.05121009 332.9925613 161.66518774 329.80771839 149.5625 320.4140625 C141.91991975 313.62882298 134.78195091 303.50130347 133.94799805 293.02685547 C133.37407123 270.45849803 133.37407123 270.45849803 140.875 260.5 C143.36058376 256.90971235 143.86453374 255.50231901 143.125 251.25 C141.87936665 248.50960663 140.81364555 246.7856132 138.4375 244.9375 C134.94319029 243.89865117 131.6951915 243.58461361 128.125 244.25 C120.46067224 249.72451983 115.55018844 260.77187074 113.56640625 269.7890625 C110.8699333 290.93131944 113.86068555 310.56152416 127.0625 327.6875 C138.4367892 341.02663763 154.47360447 350.57776253 172.125 352.25 C189.16898984 353.30582238 205.38886994 349.91295837 219.6015625 340.16796875 C221.125 339.25 221.125 339.25 223.125 339.25 C223.97595594 361.20939074 219.32096166 381.56360287 204.125 398.25 C203.44824219 399.00667969 202.77148438 399.76335937 202.07421875 400.54296875 C188.38571363 415.05813315 169.04354581 422.97080955 149.22387695 423.72412109 C140.33404417 423.8247428 132.46768692 422.48117019 124.125 419.25 C123.01898437 418.84652344 121.91296875 418.44304687 120.7734375 418.02734375 C118.125 416.25 118.125 416.25 117.4609375 413.2734375 C117.47382812 412.06945313 117.48671875 410.86546875 117.5 409.625 C116.95055551 386.07655722 106.37716723 364.86137958 90.3125 347.9375 C80.71193972 338.81547232 65.87734104 327.45179071 52 326.4375 C47.97972243 326.96311754 47.97972243 326.96311754 45.0625 329.8125 C42.79761414 333.83084587 42.31531169 335.71574544 43.125 340.25 C46.70126545 345.42402663 50.20356208 347.67122829 55.875 350.1875 C62.29619444 353.22705421 67.83770783 356.43497082 73.125 361.25 C74.26001953 362.26513672 74.26001953 362.26513672 75.41796875 363.30078125 C83.53614967 370.95662021 89.03936334 379.92174763 93.125 390.25 C93.39143311 390.89638428 93.65786621 391.54276855 93.93237305 392.20874023 C99.34205028 406.58115556 97.80476459 425.20819895 92.0234375 439.265625 C83.12054253 458.72952025 69.04612666 472.37253525 49.125 480.25 C30.23536057 486.44213945 11.0557174 485.99457024 -7.0625 477.625 C-24.25226337 468.34018904 -38.23529239 454.05818749 -43.95984203 435.05108106 C-46.69303477 425.27273195 -47.57041568 416.36066596 -47.44262695 406.24365234 C-47.44121124 404.63510686 -47.44201862 403.02655816 -47.44483948 401.41801453 C-47.44625468 397.1152041 -47.41717839 392.81311262 -47.38196969 388.51046705 C-47.3503842 383.99022181 -47.3477504 379.46995406 -47.34184265 374.94961548 C-47.32639765 366.41835209 -47.28549789 357.88741498 -47.2350952 349.35629427 C-47.1789081 339.63180349 -47.15164193 329.90729585 -47.12661803 320.18268275 C-47.074572 300.20494081 -46.98681463 280.22749109 -46.875 260.25 C-45.05713486 260.77985001 -45.05713486 260.77985001 -43.20254517 261.32040405 C-41.58386333 261.78346072 -39.96507289 262.2461379 -38.34619141 262.70849609 C-37.55084488 262.94140854 -36.75549835 263.17432098 -35.93605042 263.41429138 C-28.61664833 265.49027788 -21.87563226 266.02272855 -14.25 265.875 C-13.00597412 265.86460693 -11.76194824 265.85421387 -10.48022461 265.84350586 C-2.03963771 265.64139877 5.21173171 264.51877896 13.05859375 261.44140625 C16.10337239 260.25840308 18.89518676 259.67382165 22.125 259.25 C22.74246094 260.095625 23.35992188 260.94125 23.99609375 261.8125 C31.7490855 272.27023916 42.06491028 285.47248558 55.75 287.671875 C60.01232589 287.47558368 61.66369131 286.72256012 64.6875 283.625 C66.34084679 279.74322927 66.73225569 277.42488289 66.125 273.25 C63.50280381 269.38602814 60.825209 267.20203068 56.8125 264.875 C49.86480766 260.60448511 44.00167068 255.51875753 40.125 248.25 C40.47209604 244.59441409 42.16077895 242.91655503 44.6875 240.375 C49.98284018 234.64076676 53.49028128 228.10135946 57.125 221.25 C57.52203125 220.53328125 57.9190625 219.8165625 58.328125 219.078125 C59.71859952 215.88821286 59.68039719 212.62253234 59.125 209.25 C57.0005173 205.80687286 55.97647359 204.53382453 52.125 203.25 C48.27315949 202.8933481 45.95817902 202.73447048 42.625 204.796875 C39.58899468 207.77595522 38.16105977 210.97973505 36.5 214.8125 C30.13918762 228.35611381 19.75385541 236.7970132 5.9921875 242.5625 C-7.8210256 247.26487042 -23.34467392 247.22471886 -36.8671875 241.734375 C-40.29565183 240.04240559 -43.56193194 238.15783486 -46.875 236.25 C-47.06184578 216.38780353 -47.20293723 196.52578526 -47.28949738 176.66289234 C-47.33075646 167.44024601 -47.38701006 158.21814556 -47.47851562 148.99584961 C-47.5582303 140.95805761 -47.60986001 132.92066091 -47.62770796 124.88248461 C-47.63814216 120.62570082 -47.66267574 116.37004791 -47.72084045 112.11362648 C-47.77514827 108.10698302 -47.79189283 104.10193582 -47.77986145 100.09495926 C-47.78206226 98.62470637 -47.79797701 97.15440009 -47.8286438 95.68446541 C-48.04882248 84.58629029 -48.04882248 84.58629029 -45.15159607 81.28806114 C-43.08141175 79.95244846 -41.1982619 79.05352045 -38.875 78.25 C-37.76125 77.816875 -36.6475 77.38375 -35.5 76.9375 C-26.0687913 75.14882249 -17.45617148 75.99496712 -9.08203125 80.87890625 C-3.12566548 84.94566633 1.30377222 89.44146736 5.56640625 95.24609375 C6.9753593 97.35495278 6.9753593 97.35495278 9.125 98.25 C14.07266914 98.62340899 17.23592983 98.47237243 21.125 95.25 C23.21305073 91.57105347 23.76656151 88.42014984 23.125 84.25 C17.07716773 71.65431784 5.48339872 64.56497567 -6.875 59.25 C-7.67164063 58.88777344 -8.46828125 58.52554688 -9.2890625 58.15234375 C-15.00497985 55.98110306 -20.83196007 55.94980381 -26.875 55.875 C-27.70596191 55.86090088 -28.53692383 55.84680176 -29.39306641 55.83227539 C-35.63000208 55.88074263 -41.00253064 57.1930739 -46.875 59.25 C-46.99251438 55.12524519 -47.06268824 51.00092882 -47.125 46.875 C-47.15851563 45.71871094 -47.19203125 44.56242188 -47.2265625 43.37109375 C-47.37485008 30.24764265 -43.01561202 21.62813757 -33.99609375 12.30859375 C-29.18381187 7.80740888 -23.93914272 4.78781521 -17.875 2.25 C-17.029375 1.88003906 -16.18375 1.51007812 -15.3125 1.12890625 C-10.21254622 -0.17505921 -5.2417565 -0.0383076 0 0 Z " fill="#FDFDFD" transform="translate(1239.875,788.75)"/>
<path d="M0 0 C6.91406305 5.303466 14.09862326 12.1711171 16.5625 20.75 C17.04456084 26.59396325 16.94041214 32.39258921 16.8125 38.25 C16.79240783 39.85154021 16.77416185 41.45310471 16.7578125 43.0546875 C16.71402271 46.95373081 16.64514721 50.85159466 16.5625 54.75 C14.57885742 54.49733988 12.59521484 54.24467977 10.61157227 53.99201965 C-6.39620631 51.98319998 -22.5869413 56.55112278 -36.21875 66.8515625 C-42.33802223 72.06768913 -49.21705532 78.31347372 -51.0390625 86.4296875 C-51.28430044 90.77943416 -50.81682017 93.13819327 -48.5 96.875 C-44.3655666 99.40628575 -41.16707808 99.65787148 -36.4375 98.75 C-32.87244801 96.76020354 -30.92517639 94.11205269 -28.5625 90.875 C-22.93783298 83.18034131 -15.33184299 77.47630006 -5.95703125 75.12890625 C-3.36135026 74.73854802 -0.87460171 74.54652174 1.75 74.5 C2.60980469 74.47421875 3.46960937 74.4484375 4.35546875 74.421875 C8.87186276 74.88396647 13.21399573 76.44544872 17.5625 77.75 C17.5625 125.27 17.5625 172.79 17.5625 221.75 C2.51401592 227.22217603 -10.18231867 229.44770857 -25.28125 223.30078125 C-37.19960497 217.44485684 -45.14565127 209.30099281 -51.4375 197.75 C-52.035625 196.656875 -52.63375 195.56375 -53.25 194.4375 C-55.69675572 188.90010548 -55.65041204 183.39475336 -55.6875 177.4375 C-55.7184375 176.21256836 -55.7184375 176.21256836 -55.75 174.96289062 C-55.78685362 169.1814797 -54.67627732 165.07215797 -52.4375 159.75 C-51.88847403 155.74995366 -52.04980199 154.35160036 -54.25 150.9375 C-57.07820525 148.10929475 -58.85905317 147.80355989 -62.8125 147.4375 C-67.28764986 147.82328878 -68.50734982 148.34469033 -71.4375 151.75 C-79.45050482 169.52969756 -77.46212111 187.67613666 -71.4375 205.75 C-72.43716797 205.86214844 -72.43716797 205.86214844 -73.45703125 205.9765625 C-84.25482845 207.51694756 -92.60537876 212.25840578 -100.4375 219.75 C-102.03203633 222.93907265 -101.82311702 226.27944682 -101.4375 229.75 C-99.70782287 233.49547604 -99.70782287 233.49547604 -96.4375 235.75 C-90.72537826 236.56601739 -88.11070502 235.86307466 -83.4375 232.4375 C-82.58929687 231.80070313 -81.74109375 231.16390625 -80.8671875 230.5078125 C-74.8666911 226.16661736 -68.74763166 224.95127772 -61.3671875 225.14453125 C-57.01961341 226.0430299 -54.9972816 228.3667758 -51.9453125 231.45703125 C-35.89171583 246.13531979 -13.88359629 247.52533383 6.66674805 246.94287109 C9.99831053 246.72097291 13.26006491 246.23550799 16.5625 245.75 C16.65625522 261.30186688 16.72663109 276.85368193 16.76974869 292.40576458 C16.79030784 299.62810952 16.81829982 306.85027809 16.86425781 314.07250977 C16.90433078 320.37296181 16.92998103 326.67328603 16.93885398 332.97386199 C16.9440346 336.30508119 16.95821969 339.63564737 16.98542023 342.9668026 C17.01467941 346.70033344 17.01844648 350.43312005 17.01660156 354.16674805 C17.03098267 355.25144882 17.04536377 356.3361496 17.06018066 357.45372009 C16.97183906 374.09785986 10.01705496 389.33094265 -1.5859375 401.05859375 C-17.25404651 415.84671308 -35.92150484 420.62656647 -56.92578125 420.09375 C-74.162811 419.27807173 -89.99875746 409.71311713 -101.6875 397.375 C-106.76413005 391.3753463 -110.30806776 384.934732 -113.4375 377.75 C-113.85257813 376.8734375 -114.26765625 375.996875 -114.6953125 375.09375 C-120.17856206 361.74989793 -119.09928488 345.20696969 -113.92578125 331.9453125 C-111.33193071 326.37636304 -108.29162057 321.34323469 -104.72265625 316.3515625 C-101.48478192 311.77305674 -101.48478192 311.77305674 -99.75 306.5 C-100.68511709 302.75953163 -102.51579168 301.18475694 -105.4375 298.75 C-108.61820237 297.15964881 -112.02080451 296.96062552 -115.4375 297.75 C-120.25843025 301.11770095 -123.10179923 304.7513755 -126 309.8125 C-126.38494629 310.47515869 -126.76989258 311.13781738 -127.16650391 311.82055664 C-136.86997226 328.84357503 -138.83099967 345.50929974 -139.4375 364.75 C-150.67466395 363.74960899 -160.54571529 360.55026852 -168.16015625 351.76171875 C-170.37276941 348.87499248 -172.32573765 345.93760109 -174.1875 342.8125 C-175.27114126 340.61104578 -175.27114126 340.61104578 -177.4375 339.75 C-179.53828452 339.45407359 -181.64334407 339.18823658 -183.75 338.9375 C-206.29876865 335.74577002 -225.33783562 324.73743949 -239.4375 306.75 C-245.937569 297.69291857 -250.05892158 288.29949466 -253.4375 277.75 C-253.94990234 276.19925781 -253.94990234 276.19925781 -254.47265625 274.6171875 C-260.73967203 252.28912199 -255.47585151 229.63172865 -244.8125 209.71484375 C-238.56764205 199.2817277 -229.83095372 190.39395661 -220.4375 182.75 C-217.75564533 185.31650609 -215.59671516 187.88419331 -213.5 190.9375 C-205.96643315 200.68776669 -193.21575119 208.28637641 -180.984375 210.1171875 C-177.44732923 210.23508903 -174.24919716 209.99935773 -171.4375 207.75 C-170.09057625 203.49704213 -169.63469845 199.14966732 -170.4375 194.75 C-174.12989746 190.39486454 -177.73929411 189.22682511 -183.078125 187.60546875 C-193.74540346 183.73769726 -201.1046571 175.03478825 -205.875 165.0625 C-210.5413952 154.64893688 -211.26863745 142.78729063 -207.375 132 C-201.72933885 118.94837324 -192.43925957 107.87970394 -179.4375 101.75 C-176.63671875 101.08984375 -176.63671875 101.08984375 -174.4375 100.75 C-174.33953125 101.45382812 -174.2415625 102.15765625 -174.140625 102.8828125 C-170.77310444 125.12006037 -162.34685009 143.57494223 -145.4375 158.75 C-141.71754984 161.22996677 -138.74323798 161.16752611 -134.4375 160.75 C-131.73362496 159.89614472 -130.8137234 159.36894818 -129.34765625 156.95703125 C-128.3417744 154.5178757 -128.2011313 152.81308184 -128.25 150.1875 C-128.25644531 149.42308594 -128.26289062 148.65867187 -128.26953125 147.87109375 C-128.36696495 145.56102284 -128.36696495 145.56102284 -129.4375 142.75 C-130.76149568 142.06497615 -132.0966458 141.40140789 -133.4375 140.75 C-145.28630735 130.37115747 -152.49648919 114.45903319 -153.74609375 98.91015625 C-154.41187303 83.76458726 -149.66335674 71.31793593 -140.25 59.5625 C-131.99551598 50.58234705 -120.42308185 44.83554468 -108.26660156 44.22827148 C-94.64154943 43.97623519 -83.68052075 48.75652913 -73.4375 57.75 C-72.13528212 59.22283602 -70.86135882 60.7214601 -69.625 62.25 C-67.13790249 65.29530186 -67.13790249 65.29530186 -63.375 66.5 C-59.02090198 65.3883154 -55.74857258 63.53782624 -53.0625 59.875 C-51.92174067 55.99641826 -51.66086314 53.28945456 -53.53515625 49.57421875 C-60.22229722 38.96395507 -70.30069993 33.02532635 -81.4375 27.75 C-79.99372701 16.9118137 -70.72671515 8.10590735 -62.4375 1.75 C-43.79451947 -11.6048274 -19.3602619 -12.6032661 0 0 Z " fill="#FDFDFD" transform="translate(1120.4375,783.25)"/>
<path d="M0 0 C3.96981177 2.13759095 6.40046309 3.77092615 8 8 C8.26742554 10.79440308 8.26742554 10.79440308 8.29052734 14.05029297 C8.3096669 15.88272049 8.3096669 15.88272049 8.32919312 17.75216675 C8.33141876 19.0688736 8.33364441 20.38558044 8.3359375 21.7421875 C8.34236821 23.11215351 8.34909677 24.48211815 8.35610962 25.8520813 C8.36807331 28.72189517 8.37179141 31.59158874 8.37060547 34.46142578 C8.37040237 38.12896093 8.3976977 41.79572037 8.43214989 45.46307182 C8.45444839 48.29248559 8.45844212 51.12171358 8.45738602 53.95120621 C8.46087716 55.95750926 8.48252229 57.96375432 8.50448608 59.96994019 C8.44779305 71.28340147 8.44779305 71.28340147 4 76 C0.58449489 78.59107284 -2.83325464 78.50288306 -7 78 C-9.97239241 76.21523759 -12.42604027 74.14791945 -14 71 C-14.11193565 68.99468651 -14.15930897 66.98565215 -14.17700195 64.97729492 C-14.18983719 63.71225632 -14.20267242 62.44721771 -14.21589661 61.1438446 C-14.22406422 59.75605663 -14.23150791 58.36826423 -14.23828125 56.98046875 C-14.24235678 56.28245966 -14.2464323 55.58445057 -14.25063133 54.86528969 C-14.27149222 51.1702059 -14.28579334 47.47515924 -14.29516602 43.7800293 C-14.30622572 39.96666395 -14.34061953 36.15388291 -14.38033772 32.34072399 C-14.40650691 29.40585763 -14.4148581 26.47113037 -14.41844749 23.53615761 C-14.4233134 22.13075124 -14.43492771 20.72535109 -14.45348549 19.32005882 C-14.47787651 17.3504788 -14.47449215 15.38061453 -14.4699707 13.41088867 C-14.47583694 12.29107101 -14.48170319 11.17125336 -14.48774719 10.01750183 C-13.88992346 6.31899932 -12.56338647 4.678229 -10 2 C-6.73065722 -0.28853994 -3.9301848 -0.47162218 0 0 Z " fill="#222733" transform="translate(723,963)"/>
<path d="M0 0 C3.63467079 1.62400184 4.77408696 2.66113044 7 6 C7.27415466 8.75007629 7.27415466 8.75007629 7.30639648 12.12036133 C7.32238388 13.38209671 7.33837128 14.64383209 7.35484314 15.94380188 C7.36122056 17.32320756 7.36661308 18.7026181 7.37109375 20.08203125 C7.38006241 21.49826655 7.3891843 22.91450088 7.39845276 24.33073425 C7.41494329 27.30067241 7.42264269 30.27049785 7.42553711 33.24047852 C7.4309149 37.03709395 7.4685674 40.83264229 7.51428127 44.62895679 C7.54410165 47.55531123 7.55126175 50.48141054 7.55226326 53.40790367 C7.55645737 54.80691085 7.56885941 56.20591936 7.58978081 57.60477638 C7.75910105 69.90741846 7.75910105 69.90741846 4.65258789 73.8425293 C0.53397106 77.19238819 -2.78727522 77.5301076 -8 77 C-10.97551795 75.22396702 -13.42755188 73.14489623 -15 70 C-15.10672993 68.02518315 -15.1488532 66.04675256 -15.16113281 64.0690918 C-15.17554413 62.20156502 -15.17554413 62.20156502 -15.19024658 60.29631042 C-15.1950949 58.93061506 -15.19937364 57.56491757 -15.203125 56.19921875 C-15.20887724 54.80157977 -15.21463496 53.40394081 -15.22039795 52.00630188 C-15.23090901 49.07328931 -15.23675068 46.14030415 -15.24023438 43.20727539 C-15.2457131 39.45454847 -15.26972693 35.70218549 -15.29820633 31.94957256 C-15.31686124 29.0610296 -15.32203986 26.17257371 -15.32357025 23.2839756 C-15.32659194 21.90091784 -15.33460418 20.51786143 -15.34775543 19.1348629 C-15.36487018 17.19634592 -15.36108302 15.25767878 -15.35644531 13.3190918 C-15.36191376 11.66601265 -15.36191376 11.66601265 -15.36749268 9.97953796 C-14.94748381 6.57421196 -14.04264201 4.73549543 -12 2 C-7.95979629 -0.69346914 -4.74289561 -0.55014255 0 0 Z " fill="#1F2531" transform="translate(724,1070)"/>
<path d="M0 0 C0.33 0 0.66 0 1 0 C1.8782509 21.25816914 2.14308928 42.47443599 2.11606562 63.74835896 C2.11166002 68.12006056 2.11321454 72.49176115 2.1139679 76.86346436 C2.11448686 84.3996606 2.11140654 91.93584805 2.10573006 99.47204208 C2.09752872 110.36749681 2.0949911 121.26294737 2.09374207 132.15840484 C2.09156495 149.84470068 2.0849416 167.53099185 2.07543945 185.21728516 C2.06623039 202.37613909 2.05916675 219.53499174 2.05493164 236.69384766 C2.05466892 237.75531037 2.05440619 238.81677308 2.05413551 239.91040133 C2.05283027 245.2365798 2.05156661 250.56275827 2.05032361 255.88893676 C2.03999282 299.92596107 2.02241145 343.96298029 2 388 C2.33 388 2.66 388 3 388 C2.67 391.3 2.34 394.6 2 398 C1.67 398 1.34 398 1 398 C0.24444738 393.29685321 -0.12457345 388.79373213 -0.12304783 384.03227329 C-0.12420167 383.36404227 -0.12535552 382.69581125 -0.12654433 382.00733081 C-0.12918356 379.77631049 -0.12471115 377.54536288 -0.12025452 375.31434631 C-0.12069077 373.69550781 -0.12156667 372.07666938 -0.12284368 370.45783132 C-0.12507801 366.01562236 -0.12108186 361.57343755 -0.11606562 357.13123167 C-0.11174609 352.33853556 -0.11320862 347.54584081 -0.1139679 342.75314331 C-0.11449218 334.45152018 -0.11135537 326.14990492 -0.10573006 317.84828377 C-0.09760209 305.84554116 -0.0949985 293.84280236 -0.09374207 281.84005731 C-0.09155359 262.36626977 -0.08489903 242.89248643 -0.07543945 223.41870117 C-0.06626006 204.50203472 -0.0591818 185.5853694 -0.05493164 166.66870117 C-0.05466892 165.50262497 -0.05440619 164.33654876 -0.05413551 163.13513691 C-0.05283047 157.2852595 -0.05156676 151.43538208 -0.05032361 145.58550465 C-0.03995735 97.05700021 -0.02234457 48.52850031 0 0 Z " fill="#3D4047" transform="translate(1171,822)"/>
<path d="M0 0 C0.99 0 1.98 0 3 0 C3 22.44 3 44.88 3 68 C3.66 68 4.32 68 5 68 C4.34 69.32 3.68 70.64 3 72 C-1.81816741 67.89056312 -1.81816741 67.89056312 -2.61473083 63.98922729 C-2.60966019 62.87242584 -2.60458954 61.75562439 -2.59936523 60.60498047 C-2.60544296 59.33371307 -2.61152069 58.06244568 -2.61778259 56.75265503 C-2.5988807 55.37415425 -2.57913083 53.99566488 -2.55859375 52.6171875 C-2.55434063 51.19662917 -2.55201474 49.77606388 -2.55152893 48.35549927 C-2.5453746 45.38462626 -2.52272664 42.41451054 -2.48706055 39.44384766 C-2.44170588 35.63609394 -2.42702965 31.82902361 -2.42332363 28.0210247 C-2.4188959 25.09047714 -2.40359502 22.16007291 -2.3844471 19.22958755 C-2.37557047 17.82537132 -2.36883776 16.42113984 -2.36428642 15.01690292 C-2.35524511 13.05660465 -2.33117025 11.09639305 -2.30639648 9.13623047 C-2.29575668 8.0210202 -2.28511688 6.90580994 -2.27415466 5.75680542 C-2 3 -2 3 0 0 Z " fill="#1C212B" transform="translate(711,967)"/>
<path d="M0 0 C0.33 0.99 0.66 1.98 1 3 C1.99 3.33 2.98 3.66 4 4 C3.814375 4.639375 3.62875 5.27875 3.4375 5.9375 C3.2209375 6.9584375 3.2209375 6.9584375 3 8 C3.33 8.33 3.66 8.66 4 9 C4.08676255 10.45350587 4.10702881 11.91112459 4.09765625 13.3671875 C4.09282227 14.69556641 4.09282227 14.69556641 4.08789062 16.05078125 C4.07951172 16.98277344 4.07113281 17.91476562 4.0625 18.875 C4.05798828 19.79925781 4.05347656 20.72351563 4.04882812 21.67578125 C4.04008471 23.39698551 4.02929722 25.11818138 4.01586914 26.83935547 C4.00323508 28.55953205 4 30.27977702 4 32 C3.72548573 34.80426885 3.42605386 37.60513494 3.12109375 40.40625 C2.83856917 43.11591824 2.83856917 43.11591824 4 46 C4 46.99 4 47.98 4 49 C3.34 49 2.68 49 2 49 C2.65585189 52.60992379 2.65585189 52.60992379 4 56 C3.744654 57.35274173 3.42358664 58.69321365 3.07470703 60.02490234 C1.41981238 67.8070275 1.75294189 75.68837181 1.8046875 83.6015625 C1.80842443 85.29120719 1.81126819 86.98085407 1.81326294 88.67050171 C1.82084589 93.08618303 1.8404476 97.50172973 1.8626709 101.9173584 C1.88324526 106.4357725 1.89228928 110.95420866 1.90234375 115.47265625 C1.92369929 124.31516548 1.95776959 133.15756592 2 142 C1.34 142.33 0.68 142.66 0 143 C0 95.81 0 48.62 0 0 Z " fill="#181C27" transform="translate(1138,861)"/>
<path d="M0 0 C0.99 0.495 0.99 0.495 2 1 C2 10.24 2 19.48 2 29 C2.66 29.33 3.32 29.66 4 30 C4 32.33333333 4 34.66666667 4 37 C3.34 37 2.68 37 2 37 C2 49.54 2 62.08 2 75 C3.485 74.01 3.485 74.01 5 73 C5.14576359 77.15426234 5.20616529 80.31707747 4 84.3125 C2.62397582 89.38658915 1.50469766 96.08532863 4 100.94921875 C5.36018212 103.73865474 5.26516836 106.03823926 5.25 109.125 C5.25515625 110.17945313 5.2603125 111.23390625 5.265625 112.3203125 C5 115 5 115 3 117 C1.515 117.495 1.515 117.495 0 118 C0 79.06 0 40.12 0 0 Z " fill="#141924" transform="translate(1138,1029)"/>
<path d="M0 0 C0.66 0.33 1.32 0.66 2 1 C1.98525131 1.62795975 1.97050262 2.25591949 1.95530701 2.90290833 C1.76345273 11.20573104 1.59292811 19.50892224 1.4375 27.8125 C1.42476673 28.49271461 1.41203346 29.17292923 1.39891434 29.87375641 C0.84316507 60.0825994 1.20551091 90.25699602 1.82202148 120.46217346 C1.88656969 123.64138257 1.94522477 126.82060941 2 130 C2.01676788 130.82179749 2.03353577 131.64359497 2.05081177 132.49029541 C2.10204718 136.48915402 1.80668676 139.38662647 0 143 C-0.33 143 -0.66 143 -1 143 C-1.02332798 124.50277268 -1.04097868 106.00554833 -1.05181217 87.50830936 C-1.05697534 78.92032951 -1.06401844 70.33235877 -1.07543945 61.74438477 C-1.08538565 54.26184583 -1.09185327 46.77931349 -1.09408849 39.29676813 C-1.09539571 35.33235414 -1.09848226 31.36795905 -1.10573006 27.4035511 C-1.11248926 23.67639787 -1.11461717 19.94927143 -1.11310768 16.22211266 C-1.11338406 14.85024495 -1.11538978 13.4783764 -1.11920547 12.10651398 C-1.12414108 10.24139037 -1.12239794 8.37625256 -1.12025452 6.51112366 C-1.12117631 5.46488862 -1.1220981 4.41865358 -1.12304783 3.34071445 C-1 1 -1 1 0 0 Z " fill="#111620" transform="translate(555,1116)"/>
<path d="M0 0 C45.21 0 90.42 0 137 0 C132.5 3.375 132.5 3.375 129 4 C129 3.01 129 2.02 129 1 C86.43 1 43.86 1 0 1 C0 0.67 0 0.34 0 0 Z " fill="#F0F2F5" transform="translate(799,863)"/>
<path d="M0 0 C0.14576359 4.15426234 0.20616529 7.31707747 -1 11.3125 C-2.37602418 16.38658915 -3.49530234 23.08532863 -1 27.94921875 C0.36018212 30.73865474 0.26516836 33.03823926 0.25 36.125 C0.25515625 37.17945313 0.2603125 38.23390625 0.265625 39.3203125 C0 42 0 42 -2 44 C-2.66 44 -3.32 44 -4 44 C-4.07401579 38.05520371 -4.12853813 32.11067407 -4.16479492 26.16552734 C-4.17990526 24.14204234 -4.20039437 22.1185902 -4.22631836 20.09521484 C-4.26260328 17.19099835 -4.27970355 14.28721385 -4.29296875 11.3828125 C-4.30845261 10.47443634 -4.32393646 9.56606018 -4.33988953 8.63015747 C-4.34011612 7.78943695 -4.34034271 6.94871643 -4.34057617 6.08251953 C-4.34723801 5.34083527 -4.35389984 4.599151 -4.36076355 3.83499146 C-4.24171158 3.22944427 -4.12265961 2.62389709 -4 2 C-1 0 -1 0 0 0 Z " fill="#19202C" transform="translate(1143,1102)"/>
<path d="M0 0 C0.33 0 0.66 0 1 0 C1.04938149 4.37823917 1.0857104 8.75633146 1.10986328 13.13476562 C1.11993043 14.6247032 1.13358518 16.11462097 1.15087891 17.60449219 C1.17509653 19.74419028 1.18647564 21.88362753 1.1953125 24.0234375 C1.20578613 25.31169434 1.21625977 26.59995117 1.22705078 27.92724609 C1 31 1 31 -1 33 C-1.66 32.67 -2.32 32.34 -3 32 C-3 22.76 -3 13.52 -3 4 C-2.34 4 -1.68 4 -1 4 C-0.67 2.68 -0.34 1.36 0 0 Z " fill="#161D28" transform="translate(713,1214)"/>
<path d="M0 0 C16.335 0.495 16.335 0.495 33 1 C33.495 1.99 33.495 1.99 34 3 C20.8 3 7.6 3 -6 3 C-6 2.67 -6 2.34 -6 2 C-4.02 2 -2.04 2 0 2 C0 1.34 0 0.68 0 0 Z " fill="#182029" transform="translate(1248,1272)"/>
<path d="M0 0 C0.33 0 0.66 0 1 0 C1.33 5.28 1.66 10.56 2 16 C2.33 16 2.66 16 3 16 C3.89604368 22.04829486 4.11269443 27.8894576 4 34 C3.67 34 3.34 34 3 34 C2.67 32.35 2.34 30.7 2 29 C1.34 30.32 0.68 31.64 0 33 C0 22.11 0 11.22 0 0 Z " fill="#151C27" transform="translate(860,1017)"/>
<path d="M0 0 C0.73283203 -0.00386719 1.46566406 -0.00773438 2.22070312 -0.01171875 C6.04299616 -0.00482553 9.59770765 0.20179717 13.3125 1.125 C13.3125 1.455 13.3125 1.785 13.3125 2.125 C11.50652344 2.09019531 11.50652344 2.09019531 9.6640625 2.0546875 C8.08854785 2.03593137 6.51302652 2.01773101 4.9375 2 C4.1434375 1.98324219 3.349375 1.96648438 2.53125 1.94921875 C0.45757985 1.93164527 -1.61633241 2.02164832 -3.6875 2.125 C-4.3475 2.785 -5.0075 3.445 -5.6875 4.125 C-7.56689453 4.44384766 -7.56689453 4.44384766 -9.8203125 4.5390625 C-11.02880859 4.59707031 -11.02880859 4.59707031 -12.26171875 4.65625 C-13.52435547 4.70265625 -13.52435547 4.70265625 -14.8125 4.75 C-16.08673828 4.80800781 -16.08673828 4.80800781 -17.38671875 4.8671875 C-19.48661684 4.96156494 -21.58702891 5.04437586 -23.6875 5.125 C-22.6875 3.125 -22.6875 3.125 -20.125 2.0625 C-13.45883413 0.24445476 -6.86543372 -0.03681198 0 0 Z " fill="#151C27" transform="translate(1090.6875,753.875)"/>
<path d="M0 0 C3.81248345 -0.02936502 7.62493726 -0.04692035 11.4375 -0.0625 C12.50677734 -0.07087891 13.57605469 -0.07925781 14.67773438 -0.08789062 C20.87624228 -0.10684631 26.8549481 0.17936741 33 1 C32.67 1.66 32.34 2.32 32 3 C21.77 2.67 11.54 2.34 1 2 C0.67 1.34 0.34 0.68 0 0 Z " fill="#171C27" transform="translate(1375,1229)"/>
<path d="M0 0 C1.37091797 0.43892578 1.37091797 0.43892578 2.76953125 0.88671875 C7.42021984 2.2843991 11.75397009 3.11874128 16.58203125 3.57421875 C16.58203125 3.90421875 16.58203125 4.23421875 16.58203125 4.57421875 C20.54203125 4.90421875 24.50203125 5.23421875 28.58203125 5.57421875 C28.58203125 5.90421875 28.58203125 6.23421875 28.58203125 6.57421875 C16.76221595 7.02118656 5.62816543 6.29654377 -5.41796875 1.57421875 C-2.41796875 -0.42578125 -2.41796875 -0.42578125 0 0 Z " fill="#4F5459" transform="translate(1398.41796875,1135.42578125)"/>
<path d="M0 0 C0.33 0.99 0.66 1.98 1 3 C-0.76858691 3.67260351 -2.53996016 4.33788395 -4.3125 5 C-5.29863281 5.37125 -6.28476562 5.7425 -7.30078125 6.125 C-10 7 -10 7 -13 7 C-12.64978759 4.46096004 -12.15988127 3.17906702 -10.4375 1.25 C-6.86000943 -0.58461055 -3.99371657 -0.19968583 0 0 Z " fill="#1B202A" transform="translate(1013,1080)"/>
<path d="M0 0 C1.41702513 0.14230808 2.8336096 0.28900746 4.25 0.4375 C5.43335938 0.55931641 5.43335938 0.55931641 6.640625 0.68359375 C9 1 9 1 10.87695312 1.5 C13.06445993 2.015181 15.08539329 2.20426966 17.328125 2.31640625 C18.52695313 2.37924805 18.52695313 2.37924805 19.75 2.44335938 C20.9875 2.50233398 20.9875 2.50233398 22.25 2.5625 C23.09046875 2.60568359 23.9309375 2.64886719 24.796875 2.69335938 C26.86440671 2.79908543 28.93218281 2.90001295 31 3 C31 3.33 31 3.66 31 4 C20.44 4 9.88 4 -1 4 C-0.34 3.67 0.32 3.34 1 3 C0.67 2.01 0.34 1.02 0 0 Z " fill="#18202A" transform="translate(1049,1201)"/>
<path d="M0 0 C0.33 0 0.66 0 1 0 C1.33 9.24 1.66 18.48 2 28 C1.34 28.33 0.68 28.66 0 29 C-2 27 -2 27 -2.23046875 24.7578125 C-2.21628906 23.88898438 -2.20210937 23.02015625 -2.1875 22.125 C-2.18105469 21.26132813 -2.17460938 20.39765625 -2.16796875 19.5078125 C-2 17 -2 17 -1.5234375 15.1015625 C-0.79274645 12.16789245 -0.64841485 9.26306924 -0.4375 6.25 C-0.35371094 5.07953125 -0.26992187 3.9090625 -0.18359375 2.703125 C-0.12300781 1.81109375 -0.06242187 0.9190625 0 0 Z " fill="#1B2029" transform="translate(1464,1130)"/>
<path d="M0 0 C1.46373047 0.02707031 1.46373047 0.02707031 2.95703125 0.0546875 C3.69308594 0.07789063 4.42914062 0.10109375 5.1875 0.125 C5.5175 1.115 5.8475 2.105 6.1875 3.125 C2.32026369 4.39082219 -1.54401262 4.2368765 -5.5625 4.1875 C-6.25988281 4.18298828 -6.95726562 4.17847656 -7.67578125 4.17382812 C-9.38805803 4.1621002 -11.10029033 4.14416653 -12.8125 4.125 C-9.04213149 0.35463149 -5.18226941 -0.12487396 0 0 Z " fill="#33373E" transform="translate(1237.8125,1050.875)"/>
<path d="M0 0 C2.13586678 3.20380017 2.23132175 4.01939967 2.125 7.6875 C2.10695313 8.49574219 2.08890625 9.30398438 2.0703125 10.13671875 C2.04710937 10.75160156 2.02390625 11.36648438 2 12 C2.33 12 2.66 12 3 12 C3 16.62 3 21.24 3 26 C2.34 26.33 1.68 26.66 1 27 C1.03255208 25.046875 1.06510417 23.09375 1.09765625 21.140625 C1.08246747 19.03582328 1.08246747 19.03582328 0.5 17.21875 C-0.24466995 13.9142771 -0.10388113 10.61778701 -0.0625 7.25 C-0.05798828 6.55261719 -0.05347656 5.85523438 -0.04882812 5.13671875 C-0.0371002 3.42444197 -0.01916653 1.71220967 0 0 Z " fill="#151C23" transform="translate(1491,1028)"/>
<path d="M0 0 C1.13598633 0.00483398 1.13598633 0.00483398 2.29492188 0.00976562 C3.47344727 0.02233398 3.47344727 0.02233398 4.67578125 0.03515625 C5.47306641 0.03966797 6.27035156 0.04417969 7.09179688 0.04882812 C9.05732382 0.06059775 11.0228121 0.07853277 12.98828125 0.09765625 C12.98828125 0.75765625 12.98828125 1.41765625 12.98828125 2.09765625 C-2.75659347 3.24572003 -2.75659347 3.24572003 -10.01171875 3.09765625 C-6.51158817 0.76423586 -4.11541371 -0.03094296 0 0 Z " fill="#161B24" transform="translate(1005.01171875,807.90234375)"/>
<path d="M0 0 C3.125 0.375 3.125 0.375 6 1 C6 2.65 6 4.3 6 6 C-1.26 5.34 -8.52 4.68 -16 4 C-16 3.67 -16 3.34 -16 3 C-15.01257812 2.95101562 -14.02515625 2.90203125 -13.0078125 2.8515625 C-11.72648437 2.77679687 -10.44515625 2.70203125 -9.125 2.625 C-7.21074219 2.52058594 -7.21074219 2.52058594 -5.2578125 2.4140625 C-1.91938301 2.32758894 -1.91938301 2.32758894 0 0 Z " fill="#2F343E" transform="translate(1101,771)"/>
<path d="M0 0 C0.33 0 0.66 0 1 0 C1 4.29 1 8.58 1 13 C1.99 12.67 2.98 12.34 4 12 C3.855625 12.680625 3.71125 13.36125 3.5625 14.0625 C3.13859432 16.27622968 2.82368942 18.51123355 2.5625 20.75 C2.376875 21.8225 2.19125 22.895 2 24 C1.34 24.33 0.68 24.66 0 25 C-1.29945577 22.40108846 -1.0223077 20.67333344 -0.87890625 17.7734375 C-0.83056641 16.7421875 -0.78222656 15.7109375 -0.73242188 14.6484375 C-0.67634766 13.56820313 -0.62027344 12.48796875 -0.5625 11.375 C-0.51029297 10.28703125 -0.45808594 9.1990625 -0.40429688 8.078125 C-0.27437225 5.3851419 -0.13939838 2.69250664 0 0 Z " fill="#363A43" transform="translate(1473,1047)"/>
<path d="M0 0 C-1 2 -1 2 -4.5 3.6875 C-11.74653525 6.04409683 -19.54825128 4.71009775 -27 4 C-27 3.67 -27 3.34 -27 3 C-26.11699219 2.96261719 -25.23398438 2.92523437 -24.32421875 2.88671875 C-17.24702977 2.49903171 -10.8645278 1.70187435 -4.109375 -0.4765625 C-2 -1 -2 -1 0 0 Z " fill="#3B3F47" transform="translate(1248,1031)"/>
<path d="M0 0 C4.95 0 9.9 0 15 0 C15 1.33333333 15 2.66666667 15 4 C9.21101581 4.20674944 4.57067277 3.59162079 -1 2 C-0.67 1.34 -0.34 0.68 0 0 Z " fill="#393C42" transform="translate(1204,1051)"/>
<path d="M0 0 C0.33 1.32 0.66 2.64 1 4 C-0.73219928 5.73219928 -3.02026808 5.21291761 -5.375 5.25 C-6.35210938 5.27578125 -7.32921875 5.3015625 -8.3359375 5.328125 C-11 5 -11 5 -14 2 C-7.07 1.01 -7.07 1.01 0 0 Z " fill="#40454E" transform="translate(1379,882)"/>
<path d="M0 0 C0.66 0.66 1.32 1.32 2 2 C1.24203125 2.83144531 1.24203125 2.83144531 0.46875 3.6796875 C-0.1809375 4.40414062 -0.830625 5.12859375 -1.5 5.875 C-2.1496875 6.59429688 -2.799375 7.31359375 -3.46875 8.0546875 C-5.20617272 9.84931098 -5.20617272 9.84931098 -5 12 C-5.61875 12.12375 -6.2375 12.2475 -6.875 12.375 C-9.19120832 12.87197356 -9.19120832 12.87197356 -11 15 C-11.33 14.34 -11.66 13.68 -12 13 C-8.13635705 8.51282966 -4.25209792 4.12324647 0 0 Z " fill="#2B303A" transform="translate(1195,782)"/>
<path d="M0 0 C0.93045933 2.55144824 1.08564091 3.74006478 0.22265625 6.359375 C-0.16019531 7.14828125 -0.54304687 7.9371875 -0.9375 8.75 C-1.31777344 9.54921875 -1.69804688 10.3484375 -2.08984375 11.171875 C-2.39019531 11.77515625 -2.69054687 12.3784375 -3 13 C-4.98 13 -6.96 13 -9 13 C-8.236875 12.13375 -7.47375 11.2675 -6.6875 10.375 C-4.24480617 7.46175891 -2.60661019 4.4542119 -1 1 C-0.67 0.67 -0.34 0.34 0 0 Z " fill="#1A212B" transform="translate(616,1080)"/>
<path d="M0 0 C2.64285714 3.96428571 2.64285714 3.96428571 3 7 C2.0625 9.75 2.0625 9.75 1 12 C0.67 12 0.34 12 0 12 C-0.33 16.95 -0.66 21.9 -1 27 C-1.33 27 -1.66 27 -2 27 C-2.38297872 8.65957447 -2.38297872 8.65957447 0 0 Z " fill="#3C4148" transform="translate(891,913)"/>
<path d="M0 0 C0.33 0 0.66 0 1 0 C3.05882353 17.27941176 3.05882353 17.27941176 1 25 C0.67 25 0.34 25 0 25 C-0.19585353 21.02119772 -0.3802867 17.04194844 -0.5625 13.0625 C-0.61857422 11.92619141 -0.67464844 10.78988281 -0.73242188 9.61914062 C-0.78076172 8.53955078 -0.82910156 7.45996094 -0.87890625 6.34765625 C-0.9260376 5.34742432 -0.97316895 4.34719238 -1.02172852 3.31665039 C-1 1 -1 1 0 0 Z " fill="#0D111C" transform="translate(601,1036)"/>
<path d="M0 0 C0.33 0 0.66 0 1 0 C1 5.61 1 11.22 1 17 C0.67 17 0.34 17 0 17 C-0.33 18.98 -0.66 20.96 -1 23 C-1.33 23 -1.66 23 -2 23 C-2.05447822 20.47886908 -2.09389852 17.9589415 -2.125 15.4375 C-2.14175781 14.73302734 -2.15851562 14.02855469 -2.17578125 13.30273438 C-2.22022044 8.48108178 -1.52768004 4.57702562 0 0 Z " fill="#40464D" transform="translate(844,1021)"/>
<path d="M0 0 C0.33 0 0.66 0 1 0 C1.25408976 3.79043181 1.47403593 7.58208053 1.6875 11.375 C1.76033203 12.45523437 1.83316406 13.53546875 1.90820312 14.6484375 C1.96298828 15.6796875 2.01777344 16.7109375 2.07421875 17.7734375 C2.13182373 18.72653809 2.18942871 19.67963867 2.2487793 20.66162109 C2.16668213 21.43328613 2.08458496 22.20495117 2 23 C1.01 23.66 0.02 24.32 -1 25 C-0.67 16.75 -0.34 8.5 0 0 Z " fill="#3C4049" transform="translate(600,1045)"/>
<path d="M0 0 C-0.94724127 2.36810318 -1.65291134 3.75207953 -3.75 5.25 C-6.57753638 6.19251213 -9.03993304 6.1345485 -12 6 C-11 3 -11 3 -8 1 C-5.2133692 0.3033423 -2.88120712 0 0 0 Z " fill="#2C3338" transform="translate(1066,844)"/>
<path d="M0 0 C0.66 0.33 1.32 0.66 2 1 C2 1.66 2 2.32 2 3 C1.13117187 3.37769531 0.26234375 3.75539063 -0.6328125 4.14453125 C-4.41025939 6.22607101 -6.9343473 8.59102467 -9.875 11.6875 C-10.37257813 12.19861328 -10.87015625 12.70972656 -11.3828125 13.23632812 C-12.59558176 14.48408112 -13.79880719 15.74109864 -15 17 C-15 14 -15 14 -12.734375 11.40625 C-11.74721061 10.42972889 -10.7520431 9.46124745 -9.75 8.5 C-9.25886719 8.01402344 -8.76773438 7.52804687 -8.26171875 7.02734375 C-5.64552984 4.46696687 -2.99292648 2.10930056 0 0 Z " fill="#E5E9EB" transform="translate(900,966)"/>
<path d="M0 0 C2 2 2 2 2.1953125 4.8203125 C2.16050781 6.45613281 2.16050781 6.45613281 2.125 8.125 C2.10695313 9.22070312 2.08890625 10.31640625 2.0703125 11.4453125 C2.04710937 12.28835938 2.02390625 13.13140625 2 14 C1.01 14 0.02 14 -1 14 C-1.18451025 4.58997722 -1.18451025 4.58997722 0 0 Z " fill="#1A1E28" transform="translate(1386,907)"/>
<path d="M0 0 C0.66 0.33 1.32 0.66 2 1 C1.04737966 2.48285242 0.08771595 3.96118201 -0.875 5.4375 C-1.40867187 6.26121094 -1.94234375 7.08492187 -2.4921875 7.93359375 C-4 10 -4 10 -6 11 C-6.65772428 14.02934491 -6.65772428 14.02934491 -7 17 C-7.33 17 -7.66 17 -8 17 C-8.61727533 12.06179735 -8.15286119 9.70750017 -5.125 5.6875 C-3.49041401 3.67782785 -1.83273756 1.83273756 0 0 Z " fill="#474A51" transform="translate(1332,901)"/>
<path d="M0 0 C1.36125 0.37125 1.36125 0.37125 2.75 0.75 C2.75 1.41 2.75 2.07 2.75 2.75 C1.821875 3.018125 0.89375 3.28625 -0.0625 3.5625 C-3.0811641 4.68710035 -4.1655143 5.45706573 -6.25 7.75 C-6.91 7.75 -7.57 7.75 -8.25 7.75 C-7.86679443 5.06756099 -7.17847619 3.65198589 -5.5625 1.4375 C-3.25 -0.25 -3.25 -0.25 0 0 Z " fill="#191F2A" transform="translate(974.25,822.25)"/>
<path d="M0 0 C-0.33 0.99 -0.66 1.98 -1 3 C-8.92 2.67 -16.84 2.34 -25 2 C-25 1.67 -25 1.34 -25 1 C-21.95843125 0.83135856 -18.91676547 0.66502247 -15.875 0.5 C-15.0190625 0.45230469 -14.163125 0.40460937 -13.28125 0.35546875 C-8.84778214 0.11674356 -4.44201651 -0.05825595 0 0 Z " fill="#64676D" transform="translate(1257,787)"/>
<path d="M0 0 C0.99 0.66 1.98 1.32 3 2 C3 3.32 3 4.64 3 6 C2.34 6 1.68 6 1 6 C0.67 6.99 0.34 7.98 0 9 C-0.66 9 -1.32 9 -2 9 C-2 6.36 -2 3.72 -2 1 C-1.34 0.67 -0.68 0.34 0 0 Z " fill="#1A1E28" transform="translate(949,886)"/>
<path d="M0 0 C8.25 0 16.5 0 25 0 C25 0.33 25 0.66 25 1 C22.36 1 19.72 1 17 1 C17 1.66 17 2.32 17 3 C11.39 2.34 5.78 1.68 0 1 C0 0.67 0 0.34 0 0 Z " fill="#484A51" transform="translate(1317,827)"/>
<path d="M0 0 C2.96052484 3.36423277 3.92289822 6.69159287 5 11 C4.01 10.34 3.02 9.68 2 9 C2 8.01 2 7.02 2 6 C0.68 6.33 -0.64 6.66 -2 7 C-2 5.35 -2 3.7 -2 2 C-1.34 2 -0.68 2 0 2 C0 1.34 0 0.68 0 0 Z " fill="#282F36" transform="translate(1348,1162)"/>
<path d="M0 0 C0.33 0.99 0.66 1.98 1 3 C0 4.5 0 4.5 -2 6 C-4.71846235 6.27345479 -7.25677199 6.13491285 -10 6 C-4.4 0 -4.4 0 0 0 Z " fill="#2C3239" transform="translate(947,988)"/>
<path d="M0 0 C0.66 0.33 1.32 0.66 2 1 C1.67 6.28 1.34 11.56 1 17 C0.67 17 0.34 17 0 17 C-0.19436491 14.54203147 -0.3807742 12.08390706 -0.5625 9.625 C-0.61857422 8.92632813 -0.67464844 8.22765625 -0.73242188 7.5078125 C-1.11328125 2.2265625 -1.11328125 2.2265625 0 0 Z " fill="#3A3D44" transform="translate(1298,828)"/>
<path d="M0 0 C0.66 0.99 1.32 1.98 2 3 C1.01 3.33 0.02 3.66 -1 4 C-1 4.66 -1 5.32 -1 6 C-3.375 6.625 -3.375 6.625 -6 7 C-6.66 6.34 -7.32 5.68 -8 5 C-4.04 2.525 -4.04 2.525 0 0 Z " fill="#2C313B" transform="translate(1204,776)"/>
<path d="M0 0 C3.96 0 7.92 0 12 0 C12 0.99 12 1.98 12 3 C3.42857143 3.28571429 3.42857143 3.28571429 0 1 C0 0.67 0 0.34 0 0 Z " fill="#171F27" transform="translate(916,1138)"/>
<path d="M0 0 C0.66 0 1.32 0 2 0 C2 1.98 2 3.96 2 6 C2.66 6 3.32 6 4 6 C4.99 6 5.98 6 7 6 C5.68 7.32 4.36 8.64 3 10 C1.35 8.35 -0.3 6.7 -2 5 C-1.34 3.35 -0.68 1.7 0 0 Z " fill="#192029" transform="translate(970,931)"/>
<path d="M0 0 C0.33 0.99 0.66 1.98 1 3 C-1.31 4.98 -3.62 6.96 -6 9 C-6 5.71823412 -5.52164099 3.89111788 -4 1 C-1.875 0.1875 -1.875 0.1875 0 0 Z " fill="#2D353C" transform="translate(893,969)"/>
<path d="M0 0 C-0.99 1.485 -0.99 1.485 -2 3 C-4.5 3.125 -4.5 3.125 -7 3 C-7.99 3.495 -7.99 3.495 -9 4 C-11.3400417 3.71758117 -13.67504723 3.38749213 -16 3 C-16 2.67 -16 2.34 -16 2 C-13.71022755 1.47090114 -11.41810812 0.95194981 -9.125 0.4375 C-7.84882812 0.14746094 -6.57265625 -0.14257812 -5.2578125 -0.44140625 C-2 -1 -2 -1 0 0 Z " fill="#41484F" transform="translate(1288,1270)"/>
<path d="M0 0 C0.66 0.33 1.32 0.66 2 1 C2 3.97 2 6.94 2 10 C1.01 10.495 1.01 10.495 0 11 C-1.62651522 7.74696956 -1.11453156 4.60774398 -1 1 C-0.67 0.67 -0.34 0.34 0 0 Z " fill="#1C2028" transform="translate(1174,1215)"/>
<path d="M0 0 C2.31 0 4.62 0 7 0 C7 1.32 7 2.64 7 4 C4.36 3.67 1.72 3.34 -1 3 C-0.67 2.01 -0.34 1.02 0 0 Z " fill="#161D26" transform="translate(969,1165)"/>
<path d="M0 0 C3 2 3 2 3.51171875 4.1640625 C3.56972656 4.97617188 3.62773438 5.78828125 3.6875 6.625 C3.75324219 7.44226562 3.81898437 8.25953125 3.88671875 9.1015625 C3.92410156 9.72804688 3.96148438 10.35453125 4 11 C3.67 10.34 3.34 9.68 3 9 C2.01 9 1.02 9 0 9 C0 6.03 0 3.06 0 0 Z " fill="#1B232C" transform="translate(1478,1111)"/>
<path d="M0 0 C1.67110042 2.96178773 2.32682752 5.37071192 2.625 8.75 C2.69976563 9.54921875 2.77453125 10.3484375 2.8515625 11.171875 C2.90054688 11.77515625 2.94953125 12.3784375 3 13 C0 11 0 11 -0.546875 9.16015625 C-0.61390625 8.46792969 -0.6809375 7.77570313 -0.75 7.0625 C-0.86601563 6.02802734 -0.86601563 6.02802734 -0.984375 4.97265625 C-1 3 -1 3 0 0 Z " fill="#373D45" transform="translate(864,1048)"/>
<path d="M0 0 C0.66 0 1.32 0 2 0 C1.67 1.32 1.34 2.64 1 4 C1.66 4 2.32 4 3 4 C2.3125 5.9375 2.3125 5.9375 1 8 C-1.625 8.75 -1.625 8.75 -4 9 C-4 8.34 -4 7.68 -4 7 C-3.01 6.34 -2.02 5.68 -1 5 C-0.27034634 2.43717258 -0.27034634 2.43717258 0 0 Z " fill="#191F2A" transform="translate(595,1106)"/>
<path d="M0 0 C0.33 0.66 0.66 1.32 1 2 C1.66 2.33 2.32 2.66 3 3 C0.50174717 6.21203935 -2.0702992 9.17493137 -5 12 C-3.68938409 7.76570244 -2.05643741 3.92592596 0 0 Z " fill="#2F353C" transform="translate(855,985)"/>
<path d="M0 0 C0.66 0 1.32 0 2 0 C2.33 1.98 2.66 3.96 3 6 C1.35 6.33 -0.3 6.66 -2 7 C-2.125 4.625 -2.125 4.625 -2 2 C-1.34 1.34 -0.68 0.68 0 0 Z " fill="#2D333A" transform="translate(1454,949)"/>
<path d="M0 0 C0.99 0.33 1.98 0.66 3 1 C5.22574335 1.22451458 7.45581519 1.40782878 9.6875 1.5625 C10.86699219 1.64628906 12.04648438 1.73007812 13.26171875 1.81640625 C14.61716797 1.90728516 14.61716797 1.90728516 16 2 C16 2.33 16 2.66 16 3 C7.585 3.495 7.585 3.495 -1 4 C-0.67 2.68 -0.34 1.36 0 0 Z " fill="#4C4F58" transform="translate(1319,846)"/>
<path d="M0 0 C0.33 0 0.66 0 1 0 C1.309375 1.093125 1.61875 2.18625 1.9375 3.3125 C2.58337897 5.55407994 3.2623117 7.7869351 4 10 C2.125 9.8125 2.125 9.8125 0 9 C-1.375 6.6875 -1.375 6.6875 -2 4 C-1.125 1.6875 -1.125 1.6875 0 0 Z " fill="#1A202A" transform="translate(556,1255)"/>
<path d="M0 0 C0.66 0 1.32 0 2 0 C2 1.98 2 3.96 2 6 C0.35 6.33 -1.3 6.66 -3 7 C-1.125 1.125 -1.125 1.125 0 0 Z " fill="#19202B" transform="translate(1337,1216)"/>
<path d="M0 0 C-0.66 1.65 -1.32 3.3 -2 5 C-3.65 4.67 -5.3 4.34 -7 4 C-7.33 4.66 -7.66 5.32 -8 6 C-8.66 5.34 -9.32 4.68 -10 4 C-8.71086513 3.32845067 -7.41859796 2.66291141 -6.125 2 C-5.40570312 1.62875 -4.68640625 1.2575 -3.9453125 0.875 C-2 0 -2 0 0 0 Z " fill="#373D46" transform="translate(1304,1262)"/>
<path d="M0 0 C2.66666667 0.66666667 5.33333333 1.33333333 8 2 C7.67 2.99 7.34 3.98 7 5 C4.625 4.75 4.625 4.75 2 4 C0.6875 1.9375 0.6875 1.9375 0 0 Z " fill="#1C222B" transform="translate(870,1109)"/>
<path d="M0 0 C-0.99 0.66 -1.98 1.32 -3 2 C-3.33 2.99 -3.66 3.98 -4 5 C-4.99 5 -5.98 5 -7 5 C-7 4.34 -7 3.68 -7 3 C-7.66 2.67 -8.32 2.34 -9 2 C-3.375 -1.125 -3.375 -1.125 0 0 Z " fill="#3A3E48" transform="translate(1214,773)"/>
<path d="M0 0 C0.66 0.33 1.32 0.66 2 1 C2 1.99 2 2.98 2 4 C-0.5 6.1875 -0.5 6.1875 -3 8 C-3.66 7.67 -4.32 7.34 -5 7 C-3.35 4.69 -1.7 2.38 0 0 Z " fill="#2B333C" transform="translate(1323,1242)"/>
<path d="M0 0 C0.8971875 0.309375 0.8971875 0.309375 1.8125 0.625 C-1.1875 2.625 -1.1875 2.625 -3.1875 3.625 C-3.5175 4.285 -3.8475 4.945 -4.1875 5.625 C-5.1775 5.955 -6.1675 6.285 -7.1875 6.625 C-4.6484375 -0.796875 -4.6484375 -0.796875 0 0 Z " fill="#2E313B" transform="translate(717.1875,1070.375)"/>
<path d="M0 0 C5.75 0.75 5.75 0.75 8 3 C4.67465243 4.10844919 2.37817425 3.84454356 -1 3 C-0.67 2.01 -0.34 1.02 0 0 Z " fill="#19202A" transform="translate(1096,1007)"/>
<path d="M0 0 C2.0625 1.75 2.0625 1.75 4 4 C3.75 6.25 3.75 6.25 3 8 C0 6 0 6 -0.75 4 C-1 2 -1 2 0 0 Z " fill="#1C212A" transform="translate(609,1008)"/>
<path d="M0 0 C2.97 0 5.94 0 9 0 C9 0.99 9 1.98 9 3 C6.03 2.67 3.06 2.34 0 2 C0 1.34 0 0.68 0 0 Z " fill="#10171F" transform="translate(934,990)"/>
<path d="M0 0 C2.60018816 3.90028225 2.15085514 7.47434569 2 12 C-0.56295176 9.33025858 -0.99337817 8.09767206 -1.25 4.3125 C-1 1 -1 1 0 0 Z " fill="#434750" transform="translate(1404,890)"/>
<path d="M0 0 C2.625 0.9375 2.625 0.9375 5 2 C3.68 3.32 2.36 4.64 1 6 C0.01 4.35 -0.98 2.7 -2 1 C-1.34 0.67 -0.68 0.34 0 0 Z " fill="#33333B" transform="translate(1244,879)"/>
<path d="M0 0 C0.33 1.32 0.66 2.64 1 4 C-2.28976808 5.09658936 -3.71303767 4.79953138 -7 4 C-5.53303752 1.06607504 -3.25996861 0 0 0 Z " fill="#18202A" transform="translate(1417,1207)"/>
<path d="M0 0 C1 3 1 3 0 6 C-2.97 5.505 -2.97 5.505 -6 5 C-5.195625 4.360625 -4.39125 3.72125 -3.5625 3.0625 C-1.7249496 1.59396498 -1.7249496 1.59396498 0 0 Z " fill="#282F39" transform="translate(1432,1197)"/>
<path d="M0 0 C0.99 0.33 1.98 0.66 3 1 C2.34 2.32 1.68 3.64 1 5 C1.66 5 2.32 5 3 5 C3 5.66 3 6.32 3 7 C1.68 6.34 0.36 5.68 -1 5 C-1 1 -1 1 0 0 Z " fill="#1B202A" transform="translate(943,1151)"/>
<path d="M0 0 C0.66 0.99 1.32 1.98 2 3 C1.34 3.66 0.68 4.32 0 5 C-0.33 6.010625 -0.66 7.02125 -1 8.0625 C-2 11 -2 11 -4 12 C-3.52309796 10.37433394 -3.04340334 8.74948689 -2.5625 7.125 C-2.29566406 6.22007813 -2.02882813 5.31515625 -1.75390625 4.3828125 C-1 2 -1 2 0 0 Z " fill="#444850" transform="translate(988,1103)"/>
<path d="M0 0 C0.33 0 0.66 0 1 0 C1.33 2.64 1.66 5.28 2 8 C0.68 7.67 -0.64 7.34 -2 7 C-2.33 5.68 -2.66 4.36 -3 3 C-2.01 3 -1.02 3 0 3 C0 2.01 0 1.02 0 0 Z " fill="#1B2128" transform="translate(1361,1099)"/>
<path d="M0 0 C0.33 0 0.66 0 1 0 C1.33 3.3 1.66 6.6 2 10 C1.01 9.67 0.02 9.34 -1 9 C-1.09765625 2.84765625 -1.09765625 2.84765625 -1 1 C-0.67 0.67 -0.34 0.34 0 0 Z " fill="#151823" transform="translate(601,1036)"/>
<path d="M0 0 C0.33 0.99 0.66 1.98 1 3 C0.00390625 4.82421875 0.00390625 4.82421875 -1.4375 6.6875 C-1.91058594 7.31011719 -2.38367187 7.93273437 -2.87109375 8.57421875 C-3.24363281 9.04472656 -3.61617187 9.51523437 -4 10 C-4.33 9.34 -4.66 8.68 -5 8 C-3.62292893 4.85240898 -2.43840236 2.43840236 0 0 Z " fill="#373A43" transform="translate(1282,993)"/>
<path d="M0 0 C0.66 0 1.32 0 2 0 C2.36625971 4.51720311 2.36625971 4.51720311 0.625 6.8125 C-1 8 -1 8 -3 8 C-1.125 2.25 -1.125 2.25 0 0 Z " fill="#30363F" transform="translate(897,898)"/>
<path d="M0 0 C2.875 0.3125 2.875 0.3125 6 1 C6.66 1.99 7.32 2.98 8 4 C6.02 4 4.04 4 2 4 C1.34 2.68 0.68 1.36 0 0 Z " fill="#181D24" transform="translate(1051,845)"/>
<path d="M0 0 C2.64 0 5.28 0 8 0 C7.67 1.65 7.34 3.3 7 5 C3.535 3.02 3.535 3.02 0 1 C0 0.67 0 0.34 0 0 Z " fill="#2B3139" transform="translate(1271,796)"/>
<path d="M0 0 C0.66 0 1.32 0 2 0 C4.09230769 4.43076923 4.09230769 4.43076923 3.625 7.3125 C3.41875 7.869375 3.2125 8.42625 3 9 C0.23776722 6.23776722 0.42143709 3.79293383 0 0 Z " fill="#2E353A" transform="translate(1153,791)"/>
<path d="M0 0 C0.66 0.99 1.32 1.98 2 3 C-0.75 7.875 -0.75 7.875 -3 9 C-2.44271087 5.65626525 -1.64826111 2.96687001 0 0 Z " fill="#2A3038" transform="translate(1455,1169)"/>
<path d="M0 0 C0.66 1.32 1.32 2.64 2 4 C0.75 5.5625 0.75 5.5625 -1 7 C-3.1875 6.6875 -3.1875 6.6875 -5 6 C-4.360625 5.566875 -3.72125 5.13375 -3.0625 4.6875 C-0.73253997 3.08760823 -0.73253997 3.08760823 0 0 Z " fill="#191E29" transform="translate(581,1118)"/>
<path d="M0 0 C0.66 0 1.32 0 2 0 C3.38938077 1.96147874 4.7260411 3.96166576 6 6 C5.67 6.66 5.34 7.32 5 8 C2 7 2 7 0.8125 5.125 C0 3 0 3 0 0 Z " fill="#2B323A" transform="translate(873,1079)"/>
<path d="M0 0 C0.33 0 0.66 0 1 0 C1.25 2.25 1.25 2.25 1 5 C-1 7.3125 -1 7.3125 -3 9 C-3.66 8.67 -4.32 8.34 -5 8 C-4.19185349 6.66402348 -3.37836819 5.331275 -2.5625 4 C-2.11003906 3.2575 -1.65757813 2.515 -1.19140625 1.75 C-0.79824219 1.1725 -0.40507813 0.595 0 0 Z " fill="#33383F" transform="translate(1375,946)"/>
<path d="M0 0 C1.32 0.66 2.64 1.32 4 2 C3 5 3 5 1 7 C1 5.68 1 4.36 1 3 C0.01 2.67 -0.98 2.34 -2 2 C-1.34 1.34 -0.68 0.68 0 0 Z " fill="#151D26" transform="translate(985,923)"/>
<path d="M0 0 C-0.8125 2.4375 -0.8125 2.4375 -2 5 C-2.99 5.33 -3.98 5.66 -5 6 C-5.33 5.01 -5.66 4.02 -6 3 C-2.25 0 -2.25 0 0 0 Z " fill="#1B232B" transform="translate(918,905)"/>
<path d="M0 0 C3 2 3 2 4 4 C2.02 4.33 0.04 4.66 -2 5 C-1.125 1.125 -1.125 1.125 0 0 Z " fill="#3B4047" transform="translate(1364,903)"/>
<path d="M0 0 C0.99 0.33 1.98 0.66 3 1 C2.67 2.32 2.34 3.64 2 5 C0.35 4.67 -1.3 4.34 -3 4 C-2.01 2.68 -1.02 1.36 0 0 Z " fill="#2B2F39" transform="translate(1204,845)"/>
<path d="M0 0 C0.66 0.99 1.32 1.98 2 3 C1.125 6.6875 1.125 6.6875 0 10 C-0.66 9.01 -1.32 8.02 -2 7 C-1.125 3.3125 -1.125 3.3125 0 0 Z " fill="#161E27" transform="translate(973,844)"/>
<path d="M0 0 C-2.95711562 1.64284201 -5.62008426 2.6442194 -9 3 C-9.66 2.34 -10.32 1.68 -11 1 C-6.87831311 -0.62950412 -4.29299643 -1.26264601 0 0 Z " fill="#3D424A" transform="translate(1111,839)"/>
<path d="M0 0 C0.66 0 1.32 0 2 0 C2.80967438 2.91482778 3.21845993 4.46113217 2.0625 7.3125 C1.5365625 8.1478125 1.5365625 8.1478125 1 9 C-0.06546953 5.8035914 -0.07427838 3.34252724 0 0 Z " fill="#2B303A" transform="translate(1375,1089)"/>
<path d="M0 0 C1.32 0 2.64 0 4 0 C3.67 0.99 3.34 1.98 3 3 C0.69 3.33 -1.62 3.66 -4 4 C-3.67 3.34 -3.34 2.68 -3 2 C-2.01 2 -1.02 2 0 2 C0 1.34 0 0.68 0 0 Z " fill="#1B212B" transform="translate(1131,1007)"/>
<path d="M0 0 C0.33 0 0.66 0 1 0 C1.16834933 1.77067416 1.33461909 3.54154612 1.5 5.3125 C1.5928125 6.29863281 1.685625 7.28476562 1.78125 8.30078125 C2 11 2 11 2 14 C0.48046875 12.85546875 0.48046875 12.85546875 -1 11 C-1.07421875 8.30078125 -1.07421875 8.30078125 -0.6875 5.3125 C-0.56761719 4.31863281 -0.44773437 3.32476563 -0.32421875 2.30078125 C-0.21722656 1.54152344 -0.11023437 0.78226563 0 0 Z " fill="#55585F" transform="translate(1459,963)"/>
<path d="M0 0 C0.99 0.66 1.98 1.32 3 2 C-0.63423209 4.32590854 -3.77088331 4.16265833 -8 4 C-5.28790442 2.19193628 -3.10633303 0.93189991 0 0 Z " fill="#4C4E54" transform="translate(1257,884)"/>
<path d="M0 0 C1.25541557 3.76624671 0.37061958 5.37188934 -1 9 C-1.66 8.67 -2.32 8.34 -3 8 C-2.45276317 4.62537285 -1.9451 2.91765 0 0 Z " fill="#2A3037" transform="translate(1072,862)"/>
<path d="M0 0 C1.98 0 3.96 0 6 0 C6 0.99 6 1.98 6 3 C6.99 3.33 7.98 3.66 9 4 C4.31908701 4 3.37898396 3.00354129 0 0 Z " fill="#31353C" transform="translate(1354,854)"/>
<path d="M0 0 C2.31 0.66 4.62 1.32 7 2 C3.77208445 4.1519437 2.71599191 4.20086443 -1 4 C-0.67 2.68 -0.34 1.36 0 0 Z " fill="#3E414A" transform="translate(1226,845)"/>
<path d="M0 0 C0.66 0.33 1.32 0.66 2 1 C2 2.32 2 3.64 2 5 C-0.31 4.67 -2.62 4.34 -5 4 C-3.35 2.68 -1.7 1.36 0 0 Z " fill="#353A44" transform="translate(1105,772)"/>
<path d="M0 0 C0.66 1.32 1.32 2.64 2 4 C0.02 6.97 0.02 6.97 -2 10 C-3 8 -3 8 -2.44140625 6.0546875 C-2.15136719 5.33539062 -1.86132812 4.61609375 -1.5625 3.875 C-1.27503906 3.15054687 -0.98757813 2.42609375 -0.69140625 1.6796875 C-0.46324219 1.12539062 -0.23507812 0.57109375 0 0 Z " fill="#363D47" transform="translate(1332,1224)"/>
<path d="M0 0 C1.65 0.33 3.3 0.66 5 1 C4.01 2.485 4.01 2.485 3 4 C1.68 3.67 0.36 3.34 -1 3 C-0.67 2.01 -0.34 1.02 0 0 Z " fill="#1A212A" transform="translate(890,1124)"/>
<path d="M0 0 C0.33 0.66 0.66 1.32 1 2 C1.66 2.33 2.32 2.66 3 3 C0.36 3.33 -2.28 3.66 -5 4 C-4.67 3.01 -4.34 2.02 -4 1 C-1.9375 0.3125 -1.9375 0.3125 0 0 Z " fill="#191D29" transform="translate(576,1102)"/>
<path d="M0 0 C2.375 0.25 2.375 0.25 5 1 C6.3125 3.0625 6.3125 3.0625 7 5 C6.01 5 5.02 5 4 5 C1.8125 2.5 1.8125 2.5 0 0 Z " fill="#2A2E35" transform="translate(579,1005)"/>
<path d="M0 0 C0.66 0.33 1.32 0.66 2 1 C0.8141763 4.37503669 -0.27573689 6.64722731 -3 9 C-2.30058404 5.85262818 -1.23921302 2.97411124 0 0 Z " fill="#282F36" transform="translate(1389,961)"/>
<path d="M0 0 C0.33 0 0.66 0 1 0 C1.75 2.6875 1.75 2.6875 2 6 C0.0625 8.875 0.0625 8.875 -2 11 C-1.125 3.375 -1.125 3.375 0 0 Z " fill="#464C55" transform="translate(1046,939)"/>
<path d="M0 0 C2 2 2 2 2 4 C-1.3 3.67 -4.6 3.34 -8 3 C-8 2.67 -8 2.34 -8 2 C-6.71254964 1.61077082 -5.41980403 1.23901964 -4.125 0.875 C-3.04605469 0.56175781 -3.04605469 0.56175781 -1.9453125 0.2421875 C-1.30335937 0.16226563 -0.66140625 0.08234375 0 0 Z " fill="#3D4047" transform="translate(1218,862)"/>
<path d="M0 0 C0.66 0 1.32 0 2 0 C0.25 6.75 0.25 6.75 -2 9 C-1.125 2.25 -1.125 2.25 0 0 Z " fill="#44484F" transform="translate(1175,809)"/>
</svg>
